<svg width="16" height="18" viewBox="0 0 16 18" fill="none" xmlns="http://www.w3.org/2000/svg">
  <!-- Mug body outline -->
  <path d="M2 4 L2 16 Q2 17 3 17 L10 17 Q11 17 11 16 L11 4"
        stroke="black" stroke-width="1.5" fill="none" stroke-linecap="round" stroke-linejoin="round"/>
  <!-- Mug top rim -->
  <path d="M2 4 L11 4" stroke="black" stroke-width="1.5" stroke-linecap="round"/>
  <!-- Handle -->
  <path d="M11 6 Q15 6 15 10 Q15 14 11 14"
        stroke="black" stroke-width="1.5" fill="none" stroke-linecap="round"/>
  <!-- Beer liquid (full) -->
  <rect x="3" y="5" width="7" height="11" rx="0.5" fill="black" opacity="0.55"/>

  <!-- Slightly more regular foam head -->
  <path d="M1.05 4 Q1.05 1.2 3.95 1.55 Q6.35 0.1 8.95 1.55 Q11.85 1.05 11.95 4 Q10.95 3.1 9.45 3.45 Q6.55 2.45 4.05 3.4 Q2.05 3.05 1.05 4 Z"
        fill="black" opacity="0.75"/>

  <!-- Keep the main left drip, remove the secondary right drip -->
  <path d="M1.45 4 Q0.65 5 1 6.85 Q1.25 7.75 1.05 8.5"
        stroke="black" stroke-width="1.9" fill="none" stroke-linecap="round" opacity="0.58"/>
</svg>
